<?xml version="1.0" encoding="UTF-8" standalone="no"?>
<!-- Created with Inkscape (http://www.inkscape.org/) -->

<svg
   xmlns:dc="http://purl.org/dc/elements/1.1/"
   xmlns:cc="http://creativecommons.org/ns#"
   xmlns:rdf="http://www.w3.org/1999/02/22-rdf-syntax-ns#"
   xmlns:svg="http://www.w3.org/2000/svg"
   xmlns="http://www.w3.org/2000/svg"
   xmlns:sodipodi="http://sodipodi.sourceforge.net/DTD/sodipodi-0.dtd"
   xmlns:inkscape="http://www.inkscape.org/namespaces/inkscape"
   version="1.1"
   width="294.48761"
   height="86.825867"
   viewBox="0 0 294.48761 86.825869"
   id="Capa_1"
   xml:space="preserve"
   inkscape:version="0.48.5 r10040"
   sodipodi:docname="nbia-logo-black.svg"><sodipodi:namedview
     pagecolor="#ffffff"
     bordercolor="#666666"
     borderopacity="1"
     objecttolerance="10"
     gridtolerance="10"
     guidetolerance="10"
     inkscape:pageopacity="0"
     inkscape:pageshadow="2"
     inkscape:window-width="1169"
     inkscape:window-height="831"
     id="namedview3151"
     showgrid="false"
     inkscape:zoom="2.6622512"
     inkscape:cx="147.2438"
     inkscape:cy="43.412933"
     inkscape:window-x="237"
     inkscape:window-y="139"
     inkscape:window-maximized="0"
     inkscape:current-layer="Capa_1" /><metadata
     id="metadata139"><rdf:RDF><cc:Work
         rdf:about=""><dc:format>image/svg+xml</dc:format><dc:type
           rdf:resource="http://purl.org/dc/dcmitype/StillImage" /><dc:title /></cc:Work></rdf:RDF></metadata><defs
     id="defs137" /><path
     d="M 33.25,15 17.625,28 c -0.872,0.708 -1.38525,0.716 -2.03125,0.875 l 0.34375,0.1875 91.84375,0 0.375,-0.1875 c -0.646,-0.159 -1.1895,-0.167 -2.0625,-0.875 L 90.46875,15 61.875,15 33.25,15 z m 5.625,5.5625 c 0.707875,0.0105 1.41175,0.349 2.09375,1 l 0,4.9375 -4.25,0 0,-4.9375 c 0.7365,-0.693 1.448375,-1.0105 2.15625,-1 z m 11.625,0 c 0.707875,0.0105 1.41175,0.349 2.09375,1 l 0,4.9375 -4.25,0 0,-4.9375 c 0.7365,-0.693 1.448375,-1.0105 2.15625,-1 z m 11.34375,0 c 0.707875,0.0105 1.41175,0.349 2.09375,1 l 0,4.9375 -4.25,0 0,-4.9375 c 0.7365,-0.693 1.448375,-1.0105 2.15625,-1 z m 11.375,0 c 0.707875,-0.0105 1.41975,0.307 2.15625,1 l 0,4.9375 -4.25,0 0,-4.9375 c 0.682,-0.651 1.385875,-0.9895 2.09375,-1 z m 11.65625,0 c 0.707875,-0.0105 1.41975,0.307 2.15625,1 l 0,4.9375 -4.25,0 0,-4.9375 c 0.682,-0.651 1.385875,-0.9895 2.09375,-1 z"
     transform="translate(-3.8334247e-6,0)"
     id="path5"
     style="fill-rule:evenodd;stroke:none" /><rect
     width="35.305"
     height="0.94300002"
     x="17.618868"
     y="55.795013"
     id="rect7"
     style="fill-rule:evenodd;stroke:none" /><rect
     width="264.26987"
     height="2.036"
     x="15.108866"
     y="69.681"
     id="rect9"
     style="fill-rule:evenodd;stroke:none;stroke-width:0.21773796000000001;stroke-miterlimit:22.92560004999999990" /><rect
     width="35.261002"
     height="0.94300002"
     x="70.858871"
     y="55.795013"
     id="rect11"
     style="fill-rule:evenodd;stroke:none" /><path
     d="m 121.28687,34.869 v -4.201 h -2.484 c -0.355,0.011 -0.636,0.039 -0.842,0.083 -0.206,0.044 -0.397,0.156 -0.575,0.333 -0.078,0.089 -0.161,0.194 -0.25,0.317 -0.089,0.122 -0.189,0.272 -0.3,0.45 l -0.8,1.3 -0.25,-0.133 0.517,-3.151 c 0.111,0.034 0.219,0.062 0.325,0.083 0.106,0.022 0.208,0.044 0.309,0.067 0.178,0.033 0.37,0.064 0.575,0.092 0.205,0.028 0.458,0.042 0.759,0.042 l 7.485,-0.017 c 0.178,0.011 0.375,0.011 0.592,0 0.217,-0.011 0.437,-0.045 0.659,-0.1 0.122,-0.022 0.244,-0.059 0.367,-0.108 0.122,-0.05 0.239,-0.108 0.35,-0.175 l 0.667,3.268 -0.267,0.133 -1.183,-1.833 c -0.012,0 -0.022,-0.008 -0.034,-0.025 -0.011,-0.016 -0.022,-0.03 -0.033,-0.042 -0.189,-0.233 -0.389,-0.386 -0.6,-0.458 -0.211,-0.072 -0.473,-0.108 -0.784,-0.108 l -2.484,-0.017 v 4.718 4.735 c 0,0.589 0.12,0.933 0.358,1.033 0.238,0.1 0.686,0.15 1.342,0.15 v 0.384 h -4.984 v -0.4 c 0.789,0.011 1.248,-0.086 1.375,-0.292 0.128,-0.206 0.192,-0.486 0.192,-0.842 0,-0.022 0,-0.047 0,-0.075 0,-0.028 0,-0.053 0,-0.075 v -5.136 z"
     id="path13"
     style="stroke:none" /><path
     d="m 131.40587,35.518 c 0.267,-0.311 0.55,-0.567 0.85,-0.767 0.3,-0.2 0.606,-0.345 0.917,-0.433 0.123,-0.022 0.239,-0.042 0.35,-0.059 0.111,-0.017 0.223,-0.025 0.333,-0.025 0.567,-0.011 1.07,0.175 1.509,0.559 0.439,0.384 0.697,0.937 0.775,1.659 v 3.784 c 0,0.412 0.045,0.692 0.134,0.842 0.089,0.15 0.394,0.225 0.917,0.225 v 0.384 h -3.417 v -0.4 c 0.522,0.011 0.828,-0.075 0.917,-0.259 0.089,-0.183 0.133,-0.442 0.133,-0.775 v -3.417 c 0,-0.044 -0.002,-0.097 -0.008,-0.159 -0.005,-0.061 -0.014,-0.125 -0.025,-0.191 -0.078,-0.378 -0.261,-0.723 -0.55,-1.034 -0.289,-0.311 -0.639,-0.467 -1.05,-0.467 -0.267,0 -0.55,0.081 -0.851,0.242 -0.3,0.161 -0.611,0.437 -0.934,0.825 v 3.934 c 0,0.534 0.061,0.887 0.184,1.059 0.122,0.172 0.411,0.258 0.867,0.258 v 0.384 h -3.417 v -0.4 c 0.534,0.011 0.845,-0.062 0.934,-0.217 0.089,-0.156 0.128,-0.611 0.117,-1.367 0,-0.078 0,-0.158 0,-0.242 0,-0.084 0,-0.169 0,-0.258 v -6.568 c 0,-0.056 0,-0.114 0,-0.175 0,-0.061 0,-0.119 0,-0.175 0.011,-0.367 -0.003,-0.623 -0.042,-0.767 -0.039,-0.144 -0.197,-0.267 -0.475,-0.367 -0.034,-0.011 -0.072,-0.025 -0.117,-0.042 -0.045,-0.017 -0.095,-0.031 -0.15,-0.042 v -0.283 l 2.1,-0.784 v 5.518 z"
     id="path15"
     style="stroke:none" /><path
     d="m 145.05887,39.186 0.384,0.134 c -0.322,0.733 -0.717,1.339 -1.184,1.817 -0.467,0.478 -1.162,0.75 -2.084,0.816 -0.033,0 -0.064,0 -0.092,0 -0.028,0 -0.053,0.006 -0.075,0.018 -0.022,0 -0.047,0 -0.075,0 -0.028,0 -0.059,0 -0.092,0 -0.867,0 -1.647,-0.275 -2.342,-0.826 -0.695,-0.55 -1.075,-1.503 -1.142,-2.859 0,-1.123 0.348,-2.059 1.042,-2.809 0.694,-0.75 1.531,-1.125 2.509,-1.125 0.855,0 1.605,0.225 2.25,0.675 0.645,0.45 1.034,1.103 1.167,1.959 l -5.652,-0.017 c -0.011,0.078 -0.022,0.147 -0.033,0.209 -0.011,0.061 -0.022,0.125 -0.033,0.191 0,0.067 -0.003,0.131 -0.008,0.192 -0.005,0.061 -0.008,0.125 -0.008,0.192 0,0.844 0.245,1.583 0.733,2.217 0.489,0.633 1.106,0.951 1.851,0.951 0.056,0.011 0.105,0.017 0.15,0.017 0.045,0 0.089,0 0.134,0 0.022,0 0.044,0 0.066,0 0.022,0 0.044,0 0.066,0 0.534,-0.034 1.034,-0.2 1.5,-0.5 0.467,-0.3 0.789,-0.711 0.967,-1.233 v -0.019 l 0.001,0 z m -1.717,-2.617 c -0.022,-0.611 -0.186,-1.064 -0.492,-1.358 -0.306,-0.294 -0.653,-0.447 -1.042,-0.458 -0.044,0 -0.089,0.002 -0.133,0.008 -0.044,0.006 -0.089,0.008 -0.134,0.008 -0.355,0.067 -0.697,0.253 -1.025,0.559 -0.328,0.306 -0.564,0.725 -0.708,1.259 l 3.534,-0.018 z"
     id="path17"
     style="stroke:none" /><path
     d="m 161.06287,39.186 v -7.218 c 0,-0.378 -0.075,-0.708 -0.225,-0.992 -0.15,-0.284 -0.553,-0.425 -1.209,-0.425 v -0.417 h 3.534 v 0.4 c -0.611,0.011 -1.014,0.13 -1.208,0.358 -0.195,0.228 -0.309,0.481 -0.342,0.759 -0.012,0.078 -0.017,0.155 -0.017,0.233 0,0.078 0,0.156 0,0.233 v 9.703 h -0.4 l -8.919,-9.586 v 8.136 c 0,0.411 0.147,0.669 0.441,0.775 0.295,0.106 0.67,0.158 1.125,0.158 v 0.384 h -3.534 v -0.4 c 0.067,0.011 0.134,0.016 0.2,0.016 0.066,0 0.128,0 0.184,0 0.278,0 0.522,-0.047 0.733,-0.142 0.212,-0.094 0.317,-0.353 0.317,-0.775 v -8.669 c -0.033,-0.033 -0.064,-0.069 -0.092,-0.108 -0.028,-0.039 -0.064,-0.081 -0.108,-0.125 -0.111,-0.133 -0.236,-0.267 -0.375,-0.4 -0.14,-0.133 -0.281,-0.245 -0.425,-0.333 -0.101,-0.056 -0.198,-0.103 -0.293,-0.142 -0.094,-0.039 -0.186,-0.059 -0.274,-0.059 v -0.417 h 2.617 l 8.27,9.053 z"
     id="path19"
     style="stroke:none" /><path
     d="m 165.39787,38.269 v -1.967 c 0,-0.245 -0.069,-0.456 -0.208,-0.633 -0.14,-0.178 -0.376,-0.267 -0.709,-0.267 v -0.283 c 0.2,-0.022 0.392,-0.064 0.575,-0.125 0.183,-0.061 0.364,-0.136 0.542,-0.225 0.178,-0.078 0.358,-0.164 0.541,-0.258 0.184,-0.094 0.375,-0.191 0.576,-0.292 v 6.018 c 0,0.345 0.038,0.609 0.116,0.792 0.078,0.184 0.345,0.275 0.8,0.275 v 0.384 h -3.283 v -0.4 c 0.521,0.011 0.827,-0.047 0.916,-0.175 0.089,-0.128 0.134,-0.325 0.134,-0.592 v -2.252 l 0,0 z m 0.533,-8.402 c 0.289,0.011 0.509,0.111 0.659,0.3 0.149,0.189 0.225,0.4 0.225,0.633 0.011,0.233 -0.059,0.448 -0.208,0.642 -0.15,0.194 -0.376,0.292 -0.676,0.292 -0.289,0 -0.509,-0.094 -0.658,-0.283 -0.15,-0.189 -0.226,-0.4 -0.226,-0.634 -0.011,-0.233 0.059,-0.447 0.209,-0.642 0.149,-0.194 0.375,-0.292 0.675,-0.292 v -0.016 z"
     id="path21"
     style="stroke:none" /><path
     d="m 175.78387,39.186 0.384,0.134 c -0.322,0.733 -0.717,1.339 -1.184,1.817 -0.467,0.478 -1.162,0.75 -2.084,0.816 -0.033,0 -0.064,0 -0.092,0 -0.028,0 -0.053,0.006 -0.075,0.018 -0.022,0 -0.047,0 -0.075,0 -0.027,0 -0.059,0 -0.092,0 -0.866,0 -1.647,-0.275 -2.342,-0.826 -0.694,-0.55 -1.075,-1.503 -1.142,-2.859 0,-1.123 0.347,-2.059 1.042,-2.809 0.694,-0.75 1.53,-1.125 2.509,-1.125 0.855,0 1.605,0.225 2.25,0.675 0.645,0.45 1.034,1.103 1.167,1.959 l -5.651,-0.017 c -0.011,0.078 -0.022,0.147 -0.033,0.209 -0.012,0.061 -0.022,0.125 -0.033,0.191 0,0.067 -0.003,0.131 -0.009,0.192 -0.005,0.061 -0.008,0.125 -0.008,0.192 0,0.844 0.244,1.583 0.733,2.217 0.489,0.634 1.105,0.951 1.851,0.951 0.056,0.011 0.105,0.017 0.149,0.017 0.045,0 0.089,0 0.134,0 0.022,0 0.044,0 0.066,0 0.022,0 0.045,0 0.067,0 0.533,-0.034 1.033,-0.2 1.5,-0.5 0.467,-0.3 0.789,-0.711 0.967,-1.233 v -0.019 l 0.001,0 z m -1.717,-2.617 c -0.022,-0.611 -0.187,-1.064 -0.492,-1.358 -0.305,-0.294 -0.653,-0.447 -1.042,-0.458 -0.044,0 -0.089,0.002 -0.133,0.008 -0.045,0.006 -0.089,0.008 -0.134,0.008 -0.355,0.067 -0.697,0.253 -1.025,0.559 -0.327,0.306 -0.564,0.725 -0.708,1.259 l 3.534,-0.018 z"
     id="path23"
     style="stroke:none" /><path
     d="m 178.26787,35.385 v -3.017 c 0,-0.511 -0.045,-0.839 -0.134,-0.984 -0.089,-0.145 -0.395,-0.25 -0.917,-0.317 v -0.283 l 2.367,-0.65 v 10.102 c 0,0.356 0.042,0.625 0.125,0.809 0.084,0.183 0.281,0.28 0.592,0.292 0.056,0 0.111,-0.003 0.167,-0.008 0.056,-0.005 0.111,-0.014 0.167,-0.025 v 0.384 h -3.418 v -0.4 c 0.456,0.011 0.745,-0.042 0.867,-0.159 0.122,-0.117 0.184,-0.408 0.184,-0.875 v -4.869 z"
     id="path25"
     style="stroke:none" /><path
     d="m 182.08587,39.453 h 0.267 c 0.122,0.623 0.313,1.133 0.575,1.534 0.261,0.4 0.647,0.6 1.158,0.6 0.022,0 0.042,0 0.059,0 0.017,0 0.036,0 0.059,0 0.023,0 0.042,-0.003 0.058,-0.008 0.018,-0.005 0.037,-0.008 0.059,-0.008 0.012,0 0.02,0 0.025,0 0.005,0 0.014,0 0.025,0 0.311,-0.011 0.6,-0.12 0.866,-0.325 0.267,-0.206 0.4,-0.537 0.4,-0.992 0,-0.378 -0.125,-0.698 -0.375,-0.958 -0.25,-0.261 -0.52,-0.475 -0.809,-0.642 -0.211,-0.122 -0.411,-0.222 -0.6,-0.3 -0.189,-0.078 -0.34,-0.145 -0.45,-0.2 -0.067,-0.034 -0.143,-0.072 -0.226,-0.117 -0.083,-0.045 -0.17,-0.095 -0.259,-0.15 -0.211,-0.145 -0.402,-0.342 -0.575,-0.592 -0.172,-0.25 -0.264,-0.575 -0.274,-0.975 0,-0.044 0,-0.089 0,-0.133 0,-0.044 0.005,-0.089 0.017,-0.133 0.044,-0.444 0.28,-0.839 0.708,-1.184 0.429,-0.345 0.97,-0.517 1.626,-0.517 0.322,0 0.664,0.05 1.025,0.15 0.36,0.1 0.73,0.267 1.108,0.5 v 1.7 h -0.267 c -0.134,-0.578 -0.358,-1.031 -0.676,-1.359 -0.316,-0.328 -0.703,-0.525 -1.158,-0.592 -0.022,0 -0.042,-0.003 -0.059,-0.008 -0.017,-0.005 -0.036,-0.008 -0.059,-0.008 -0.021,0 -0.041,0 -0.058,0 -0.018,0 -0.036,0 -0.059,0 -0.345,0 -0.614,0.103 -0.809,0.309 -0.194,0.205 -0.292,0.458 -0.292,0.758 0,0.044 0,0.086 0,0.125 0,0.039 0.006,0.081 0.017,0.125 0.067,0.278 0.236,0.503 0.509,0.675 0.272,0.172 0.575,0.336 0.908,0.492 0.056,0.022 0.111,0.047 0.167,0.075 0.056,0.028 0.111,0.053 0.167,0.075 0.233,0.111 0.461,0.228 0.684,0.35 0.222,0.122 0.416,0.267 0.583,0.434 0.2,0.2 0.358,0.408 0.476,0.625 0.116,0.217 0.191,0.436 0.225,0.659 0.012,0.056 0.02,0.111 0.025,0.167 0.005,0.056 0.008,0.111 0.008,0.167 0,0.578 -0.225,1.086 -0.675,1.525 -0.45,0.439 -1.036,0.658 -1.759,0.658 -0.111,0 -0.289,-0.005 -0.533,-0.016 -0.245,-0.012 -0.506,-0.039 -0.784,-0.084 -0.188,-0.045 -0.378,-0.098 -0.566,-0.158 -0.188,-0.061 -0.351,-0.147 -0.483,-0.258 v -1.986 z"
     id="path27"
     style="stroke:none" /><path
     d="m 193.90487,33.935 v -2.101 c 0,-0.445 -0.056,-0.77 -0.166,-0.975 -0.111,-0.206 -0.495,-0.309 -1.15,-0.309 v -0.417 h 4.601 c 1.056,0.011 1.953,0.225 2.692,0.642 0.739,0.417 1.108,1.086 1.108,2.009 0,0.778 -0.219,1.375 -0.658,1.792 -0.438,0.417 -0.92,0.692 -1.442,0.825 0.134,0.034 0.275,0.072 0.426,0.117 0.149,0.045 0.303,0.1 0.458,0.167 0.5,0.211 0.959,0.55 1.375,1.017 0.417,0.466 0.626,1.128 0.626,1.983 -0.045,0.745 -0.292,1.328 -0.742,1.75 -0.45,0.422 -0.941,0.728 -1.476,0.917 -0.355,0.133 -0.7,0.222 -1.033,0.267 -0.334,0.044 -0.605,0.066 -0.817,0.066 h -5.117 v -0.4 c 0.666,0.011 1.056,-0.075 1.166,-0.259 0.111,-0.183 0.162,-0.625 0.15,-1.325 0,-0.056 0,-0.114 0,-0.175 0,-0.062 0,-0.125 0,-0.192 v -5.399 l -0.001,0 z m 6.035,4.601 c -0.045,-0.989 -0.316,-1.647 -0.816,-1.975 -0.501,-0.328 -1.045,-0.52 -1.635,-0.575 -0.133,-0.012 -0.267,-0.02 -0.399,-0.025 -0.134,-0.005 -0.267,-0.008 -0.4,-0.008 -0.056,0 -0.108,0 -0.158,0 -0.05,0 -0.098,0 -0.142,0 -0.145,0 -0.283,0 -0.417,0 -0.134,0 -0.256,-0.005 -0.367,-0.017 v 4.301 c 0,0.389 0.131,0.65 0.392,0.784 0.262,0.133 0.554,0.211 0.876,0.233 0.021,0 0.047,0 0.075,0 0.027,0 0.059,0 0.092,0 0.155,0 0.303,-0.008 0.441,-0.025 0.139,-0.017 0.258,-0.03 0.358,-0.042 0.589,-0.067 1.086,-0.325 1.492,-0.775 0.405,-0.45 0.608,-1.07 0.608,-1.859 v -0.017 l 0,0 z m -4.335,-8.002 v 4.984 c 0.033,0.011 0.064,0.017 0.092,0.017 0.028,0 0.059,0 0.092,0 0.022,0.011 0.048,0.017 0.075,0.017 0.027,0 0.059,0 0.092,0 1.189,0 2.042,-0.27 2.559,-0.809 0.517,-0.539 0.775,-1.153 0.775,-1.842 0,-0.922 -0.256,-1.531 -0.767,-1.825 -0.512,-0.294 -1.072,-0.464 -1.685,-0.509 -0.177,-0.011 -0.353,-0.017 -0.524,-0.017 -0.173,0 -0.336,0 -0.492,0 -0.033,0 -0.069,0 -0.108,0 -0.039,0 -0.075,0 -0.108,0 v -0.016 z"
     id="path29"
     style="stroke:none" /><path
     d="m 203.20787,38.019 c 0,-1.289 0.378,-2.22 1.133,-2.792 0.756,-0.572 1.59,-0.864 2.501,-0.875 0.011,0 0.02,0 0.025,0 0.005,0 0.014,0 0.024,0 0.134,0 0.272,0.009 0.417,0.025 0.145,0.016 0.283,0.042 0.417,0.075 0.678,0.156 1.3,0.512 1.867,1.067 0.566,0.556 0.85,1.351 0.85,2.384 0,0.033 0,0.066 0,0.1 0,0.033 0,0.066 0,0.1 0.012,1.056 -0.258,1.875 -0.808,2.458 -0.551,0.583 -1.153,0.959 -1.81,1.125 -0.155,0.044 -0.311,0.078 -0.467,0.1 -0.155,0.021 -0.311,0.033 -0.467,0.033 -0.021,0 -0.044,0 -0.066,0 -0.022,0 -0.045,0.006 -0.066,0.017 -0.022,0 -0.045,0 -0.066,0 -0.022,0 -0.045,0 -0.067,0 -0.911,0 -1.691,-0.322 -2.342,-0.967 -0.651,-0.645 -1.009,-1.589 -1.075,-2.834 v -0.016 l 0,0 z m 5.784,0 c 0,-0.912 -0.169,-1.706 -0.508,-2.384 -0.339,-0.678 -0.87,-1.017 -1.593,-1.017 -0.655,0 -1.175,0.278 -1.559,0.833 -0.383,0.556 -0.608,1.456 -0.675,2.701 0,0.167 0.011,0.339 0.033,0.517 0.022,0.178 0.05,0.361 0.083,0.55 0.134,0.556 0.361,1.064 0.684,1.525 0.322,0.461 0.756,0.692 1.301,0.692 0.723,0 1.275,-0.289 1.658,-0.867 0.384,-0.578 0.575,-1.423 0.575,-2.534 v -0.016 z"
     id="path31"
     style="stroke:none" /><path
     d="m 213.97687,35.518 c 0.267,-0.311 0.55,-0.567 0.85,-0.767 0.3,-0.2 0.605,-0.345 0.917,-0.433 0.122,-0.022 0.239,-0.042 0.351,-0.059 0.11,-0.017 0.222,-0.025 0.333,-0.025 0.566,-0.011 1.069,0.175 1.509,0.559 0.438,0.383 0.697,0.937 0.775,1.659 v 3.784 c 0,0.412 0.044,0.692 0.133,0.842 0.089,0.15 0.395,0.225 0.917,0.225 v 0.384 h -3.417 v -0.4 c 0.522,0.011 0.827,-0.075 0.916,-0.259 0.089,-0.183 0.134,-0.442 0.134,-0.775 v -3.417 c 0,-0.044 -0.003,-0.097 -0.008,-0.159 -0.006,-0.061 -0.015,-0.125 -0.025,-0.191 -0.078,-0.378 -0.262,-0.723 -0.55,-1.034 -0.289,-0.311 -0.64,-0.467 -1.051,-0.467 -0.267,0 -0.55,0.081 -0.851,0.242 -0.3,0.161 -0.61,0.437 -0.933,0.825 v 3.934 c 0,0.534 0.061,0.887 0.183,1.059 0.122,0.172 0.411,0.258 0.867,0.258 v 0.384 h -3.418 v -0.4 c 0.534,0.011 0.845,-0.062 0.934,-0.217 0.09,-0.156 0.128,-0.611 0.117,-1.367 0,-0.078 0,-0.158 0,-0.242 0,-0.084 0,-0.169 0,-0.258 v -6.568 c 0,-0.056 0,-0.114 0,-0.175 0,-0.061 0,-0.119 0,-0.175 0.011,-0.367 -0.003,-0.623 -0.042,-0.767 -0.039,-0.144 -0.197,-0.267 -0.475,-0.367 -0.034,-0.011 -0.072,-0.025 -0.117,-0.042 -0.044,-0.017 -0.094,-0.031 -0.149,-0.042 v -0.283 l 2.101,-0.784 v 5.518 z"
     id="path33"
     style="stroke:none" /><path
     d="m 221.59487,40.236 v -4.201 c 0,-0.011 -0.014,-0.056 -0.042,-0.133 -0.027,-0.078 -0.069,-0.156 -0.125,-0.233 -0.066,-0.1 -0.152,-0.192 -0.258,-0.275 -0.106,-0.083 -0.231,-0.125 -0.375,-0.125 v -0.283 c 0.267,-0.034 0.521,-0.097 0.767,-0.192 0.244,-0.094 0.478,-0.192 0.7,-0.292 0.111,-0.044 0.219,-0.092 0.325,-0.142 0.105,-0.05 0.208,-0.097 0.309,-0.142 v 1.167 c 0.032,-0.033 0.063,-0.072 0.091,-0.117 0.028,-0.044 0.059,-0.089 0.092,-0.133 0.278,-0.367 0.55,-0.622 0.817,-0.767 0.267,-0.145 0.511,-0.217 0.733,-0.217 0.244,0 0.447,0.067 0.608,0.2 0.161,0.134 0.258,0.284 0.292,0.45 0,0.011 0,0.025 0,0.042 0,0.017 0,0.03 0,0.042 0,0.245 -0.048,0.409 -0.142,0.492 -0.095,0.083 -0.197,0.131 -0.309,0.142 -0.034,0.011 -0.069,0.017 -0.108,0.017 -0.039,0 -0.075,0 -0.108,0 -0.067,0 -0.14,-0.014 -0.217,-0.042 -0.078,-0.027 -0.161,-0.058 -0.25,-0.092 -0.089,-0.033 -0.184,-0.063 -0.283,-0.091 -0.101,-0.028 -0.2,-0.042 -0.301,-0.042 -0.044,0 -0.105,0.014 -0.184,0.042 -0.077,0.028 -0.155,0.069 -0.232,0.125 -0.123,0.089 -0.236,0.208 -0.342,0.358 -0.106,0.15 -0.158,0.325 -0.158,0.525 v 3.801 c 0,0.466 0.066,0.781 0.199,0.942 0.134,0.161 0.462,0.241 0.983,0.241 v 0.384 h -3.417 v -0.4 c 0.333,0.011 0.572,-0.028 0.717,-0.117 0.145,-0.089 0.217,-0.395 0.217,-0.917 v -0.017 z"
     id="path35"
     style="stroke:none" /><path
     d="m 120.88587,52.09 v -2.767 c 0,-0.578 -0.083,-0.981 -0.25,-1.209 -0.167,-0.228 -0.611,-0.342 -1.333,-0.342 v -0.417 h 4.868 v 0.4 c -0.589,0.012 -1,0.098 -1.233,0.258 -0.233,0.162 -0.35,0.604 -0.35,1.326 v 8.119 c 0,0.533 0.117,0.844 0.35,0.934 0.233,0.088 0.645,0.133 1.233,0.133 v 0.383 h -4.868 v -0.399 c 0.011,0.011 0.02,0.017 0.025,0.017 0.005,0 0.014,0 0.025,0 0.022,0 0.047,0 0.075,0 0.028,0 0.053,0 0.075,0 0.356,0.012 0.675,-0.03 0.958,-0.125 0.284,-0.095 0.425,-0.441 0.425,-1.042 V 52.09 z"
     id="path37"
     style="stroke:none" /><path
     d="m 126.52087,55.241 v -1.983 c 0,-0.312 -0.081,-0.495 -0.242,-0.551 -0.161,-0.056 -0.342,-0.084 -0.542,-0.084 v -0.416 c 0.156,0.012 0.342,-0.02 0.559,-0.092 0.217,-0.072 0.442,-0.152 0.675,-0.242 0.044,-0.021 0.089,-0.041 0.133,-0.058 0.044,-0.017 0.089,-0.036 0.133,-0.059 0.133,-0.056 0.261,-0.11 0.383,-0.167 0.123,-0.055 0.239,-0.105 0.351,-0.149 v 1.3 c 0.322,-0.443 0.661,-0.771 1.017,-0.983 0.356,-0.211 0.761,-0.316 1.217,-0.316 0.8,0 1.417,0.25 1.851,0.75 0.434,0.5 0.656,1.089 0.667,1.767 0,0.023 0,0.045 0,0.066 0,0.023 0,0.04 0,0.051 -0.011,0.021 -0.017,0.045 -0.017,0.066 0,0.022 0,0.045 0,0.066 v 3.252 c 0,0.477 0.075,0.774 0.225,0.891 0.15,0.117 0.425,0.176 0.825,0.176 v 0.383 h -3.417 V 58.51 c 0.322,0.011 0.578,-0.028 0.767,-0.116 0.189,-0.09 0.284,-0.395 0.284,-0.918 v -3.417 c -0.034,-0.655 -0.208,-1.126 -0.525,-1.409 -0.317,-0.283 -0.675,-0.425 -1.075,-0.425 -0.022,0 -0.044,0 -0.067,0 -0.022,0 -0.044,0 -0.066,0 -0.456,0.022 -0.873,0.194 -1.25,0.517 -0.377,0.323 -0.567,0.723 -0.567,1.201 v 3.783 c 0,0.334 0.106,0.551 0.317,0.65 0.211,0.1 0.439,0.15 0.684,0.15 0.011,0 0.02,0 0.025,0 0.006,0 0.014,0 0.025,0 v 0.383 h -3.284 V 58.51 c 0.4,0.011 0.652,-0.036 0.758,-0.142 0.105,-0.105 0.158,-0.359 0.158,-0.759 v -2.368 z"
     id="path39"
     style="stroke:none" /><path
     d="m 135.45587,52.74 h -0.917 l 2.217,-2.367 v 1.451 h 2.501 l -0.4,0.916 h -2.101 v 4.201 c 0,0.022 0,0.042 0,0.059 0,0.017 0,0.031 0,0.041 0,0.012 0,0.025 0,0.043 0,0.016 0,0.029 0,0.041 0,0.422 0.111,0.73 0.333,0.926 0.222,0.193 0.483,0.291 0.784,0.291 0.022,0 0.047,0 0.075,0 0.028,0 0.053,0 0.075,0 0.178,-0.021 0.35,-0.072 0.517,-0.15 0.167,-0.077 0.317,-0.184 0.45,-0.316 0.056,-0.055 0.111,-0.1 0.167,-0.133 0.055,-0.033 0.105,-0.051 0.15,-0.051 0.033,0 0.061,0.009 0.083,0.025 0.022,0.017 0.034,0.053 0.034,0.108 0,0.022 0,0.05 0,0.083 0,0.033 -0.011,0.066 -0.034,0.1 -0.144,0.29 -0.397,0.537 -0.758,0.742 -0.361,0.206 -0.742,0.331 -1.142,0.375 -0.044,0.012 -0.086,0.018 -0.125,0.018 -0.039,0 -0.08,0 -0.125,0 -0.444,0 -0.845,-0.134 -1.2,-0.4 -0.355,-0.268 -0.55,-0.729 -0.583,-1.384 V 52.74 z"
     id="path41"
     style="stroke:none" /><path
     d="m 147.14187,56.408 0.384,0.133 c -0.322,0.734 -0.717,1.34 -1.184,1.817 -0.467,0.477 -1.162,0.751 -2.084,0.817 -0.033,0 -0.064,0 -0.092,0 -0.028,0 -0.053,0.006 -0.075,0.017 -0.022,0 -0.047,0 -0.075,0 -0.028,0 -0.059,0 -0.092,0 -0.867,0 -1.647,-0.275 -2.342,-0.825 -0.695,-0.551 -1.075,-1.504 -1.142,-2.859 0,-1.122 0.347,-2.059 1.042,-2.809 0.695,-0.75 1.531,-1.125 2.509,-1.125 0.855,0 1.605,0.225 2.25,0.674 0.645,0.451 1.034,1.104 1.167,1.959 l -5.652,-0.016 c -0.011,0.077 -0.022,0.146 -0.033,0.208 -0.011,0.062 -0.022,0.125 -0.033,0.192 0,0.066 -0.003,0.13 -0.008,0.191 -0.005,0.061 -0.008,0.125 -0.008,0.191 0,0.844 0.245,1.584 0.733,2.217 0.489,0.634 1.106,0.951 1.851,0.951 0.056,0.01 0.105,0.016 0.15,0.016 0.045,0 0.089,0 0.133,0 0.022,0 0.044,0 0.067,0 0.022,0 0.044,0 0.066,0 0.534,-0.033 1.034,-0.199 1.5,-0.5 0.467,-0.3 0.789,-0.711 0.967,-1.233 v -0.016 l 0.001,0 z m -1.717,-2.617 c -0.022,-0.611 -0.186,-1.064 -0.492,-1.359 -0.306,-0.294 -0.653,-0.447 -1.042,-0.458 -0.044,0 -0.089,0.003 -0.133,0.009 -0.044,0.006 -0.089,0.008 -0.134,0.008 -0.355,0.066 -0.697,0.253 -1.025,0.559 -0.328,0.306 -0.564,0.725 -0.708,1.259 l 3.534,-0.018 z"
     id="path43"
     style="stroke:none" /><path
     d="m 149.37687,57.459 v -4.201 c 0,-0.012 -0.014,-0.057 -0.042,-0.134 -0.027,-0.077 -0.069,-0.155 -0.125,-0.233 -0.066,-0.1 -0.153,-0.191 -0.259,-0.275 -0.105,-0.083 -0.23,-0.125 -0.375,-0.125 v -0.283 c 0.267,-0.033 0.522,-0.098 0.767,-0.191 0.245,-0.095 0.479,-0.191 0.701,-0.292 0.11,-0.044 0.219,-0.092 0.324,-0.142 0.105,-0.051 0.209,-0.098 0.309,-0.142 v 1.167 c 0.033,-0.033 0.064,-0.072 0.092,-0.117 0.028,-0.045 0.059,-0.089 0.092,-0.133 0.277,-0.367 0.55,-0.623 0.816,-0.768 0.266,-0.145 0.512,-0.217 0.734,-0.217 0.244,0 0.447,0.067 0.608,0.201 0.161,0.133 0.258,0.283 0.291,0.449 0,0.012 0,0.025 0,0.042 0,0.017 0,0.03 0,0.042 0,0.244 -0.047,0.408 -0.142,0.491 -0.094,0.083 -0.197,0.131 -0.309,0.142 -0.033,0.012 -0.069,0.018 -0.107,0.018 -0.039,0 -0.075,0 -0.108,0 -0.067,0 -0.14,-0.014 -0.217,-0.042 -0.078,-0.028 -0.162,-0.059 -0.25,-0.093 -0.09,-0.032 -0.184,-0.062 -0.284,-0.091 -0.1,-0.028 -0.2,-0.042 -0.3,-0.042 -0.044,0 -0.105,0.014 -0.184,0.042 -0.077,0.028 -0.155,0.069 -0.233,0.125 -0.122,0.089 -0.236,0.208 -0.342,0.358 -0.106,0.15 -0.158,0.325 -0.158,0.525 v 3.801 c 0,0.467 0.066,0.781 0.2,0.941 0.134,0.162 0.461,0.242 0.983,0.242 v 0.383 h -3.417 v -0.399 c 0.333,0.011 0.573,-0.028 0.717,-0.116 0.145,-0.09 0.217,-0.395 0.217,-0.918 v -0.015 z"
     id="path45"
     style="stroke:none" /><path
     d="m 155.00987,55.241 v -1.983 c 0,-0.312 -0.08,-0.495 -0.241,-0.551 -0.161,-0.056 -0.342,-0.084 -0.542,-0.084 v -0.416 c 0.155,0.012 0.342,-0.02 0.559,-0.092 0.217,-0.072 0.442,-0.152 0.675,-0.242 0.045,-0.021 0.09,-0.041 0.134,-0.058 0.044,-0.017 0.089,-0.036 0.134,-0.059 0.133,-0.056 0.261,-0.11 0.383,-0.167 0.122,-0.055 0.239,-0.105 0.351,-0.149 v 1.3 c 0.322,-0.443 0.661,-0.771 1.017,-0.983 0.355,-0.211 0.762,-0.316 1.217,-0.316 0.8,0 1.417,0.25 1.851,0.75 0.434,0.5 0.656,1.089 0.667,1.767 0,0.023 0,0.045 0,0.066 0,0.023 0,0.04 0,0.051 -0.011,0.021 -0.017,0.045 -0.017,0.066 0,0.022 0,0.045 0,0.066 v 3.252 c 0,0.477 0.075,0.774 0.225,0.891 0.15,0.117 0.426,0.176 0.825,0.176 v 0.383 h -3.417 V 58.51 c 0.322,0.011 0.578,-0.028 0.767,-0.116 0.189,-0.09 0.283,-0.395 0.283,-0.918 v -3.417 c -0.033,-0.655 -0.208,-1.126 -0.525,-1.409 -0.316,-0.283 -0.675,-0.425 -1.075,-0.425 -0.021,0 -0.044,0 -0.066,0 -0.021,0 -0.044,0 -0.066,0 -0.456,0.022 -0.873,0.194 -1.25,0.517 -0.378,0.322 -0.567,0.723 -0.567,1.201 v 3.783 c 0,0.334 0.105,0.551 0.317,0.65 0.211,0.1 0.438,0.15 0.683,0.15 0.012,0 0.02,0 0.025,0 0.005,0 0.014,0 0.024,0 v 0.383 h -3.283 V 58.51 c 0.399,0.011 0.652,-0.036 0.758,-0.142 0.106,-0.106 0.158,-0.359 0.158,-0.759 v -2.368 z"
     id="path47"
     style="stroke:none" /><path
     d="m 166.96287,54.708 v -1.834 c 0,-0.278 -0.083,-0.476 -0.25,-0.592 -0.166,-0.116 -0.366,-0.175 -0.6,-0.175 -0.056,0 -0.108,0.002 -0.158,0.008 -0.051,0.006 -0.104,0.014 -0.159,0.025 -0.188,0.021 -0.372,0.069 -0.55,0.142 -0.178,0.071 -0.328,0.147 -0.45,0.226 -0.056,0.044 -0.103,0.088 -0.142,0.133 -0.039,0.045 -0.059,0.083 -0.059,0.117 0.012,0.066 0.018,0.13 0.018,0.191 0,0.061 0,0.119 0,0.175 0,0.411 -0.064,0.697 -0.192,0.858 -0.128,0.161 -0.27,0.264 -0.425,0.309 -0.056,0.012 -0.111,0.02 -0.167,0.025 -0.056,0.005 -0.105,0.008 -0.15,0.008 -0.155,0 -0.271,-0.047 -0.35,-0.142 -0.079,-0.095 -0.134,-0.197 -0.167,-0.309 0,-0.033 -0.003,-0.066 -0.008,-0.101 -0.006,-0.033 -0.009,-0.066 -0.009,-0.1 0.045,-0.4 0.28,-0.764 0.709,-1.092 0.428,-0.328 0.892,-0.58 1.392,-0.758 0.233,-0.078 0.464,-0.14 0.691,-0.184 0.229,-0.045 0.437,-0.066 0.626,-0.066 0.589,0 1.022,0.119 1.3,0.357 0.278,0.24 0.417,0.688 0.417,1.342 v 4.318 c 0,0.289 0.036,0.488 0.108,0.6 0.072,0.112 0.152,0.173 0.242,0.184 0.011,0 0.021,0 0.033,0 0.011,0 0.027,-0.006 0.05,-0.017 0.089,-0.022 0.169,-0.091 0.241,-0.208 0.072,-0.117 0.108,-0.253 0.108,-0.408 l 0.384,-0.018 c 0,0.39 -0.095,0.703 -0.283,0.942 -0.189,0.239 -0.395,0.392 -0.617,0.458 -0.044,0.023 -0.089,0.037 -0.134,0.043 -0.044,0.005 -0.088,0.008 -0.133,0.008 -0.333,0 -0.603,-0.098 -0.809,-0.292 -0.206,-0.194 -0.375,-0.486 -0.509,-0.876 -0.011,0.012 -0.02,0.02 -0.024,0.025 -0.006,0.006 -0.014,0.014 -0.025,0.025 -0.155,0.145 -0.333,0.283 -0.533,0.416 -0.2,0.134 -0.411,0.25 -0.634,0.352 -0.155,0.055 -0.309,0.104 -0.458,0.148 -0.15,0.045 -0.292,0.067 -0.425,0.067 -0.012,0 -0.028,0 -0.051,0 -0.021,0 -0.044,0 -0.066,0 -0.078,0 -0.178,-0.009 -0.3,-0.024 -0.123,-0.018 -0.245,-0.053 -0.367,-0.109 -0.188,-0.066 -0.361,-0.199 -0.517,-0.399 -0.156,-0.2 -0.25,-0.501 -0.283,-0.9 0,-0.011 0,-0.022 0,-0.033 0,-0.011 0,-0.022 0,-0.034 0,0 0,-0.005 0,-0.016 0,-0.012 0,-0.022 0,-0.033 0,-0.512 0.233,-0.953 0.7,-1.326 0.467,-0.372 0.978,-0.68 1.533,-0.925 0.267,-0.11 0.525,-0.211 0.775,-0.3 0.25,-0.09 0.475,-0.162 0.675,-0.217 v -0.014 l 0.002,0 z m 0,0.399 c -0.8,0.278 -1.447,0.586 -1.942,0.926 -0.494,0.339 -0.741,0.691 -0.741,1.059 0,0.044 0.003,0.089 0.009,0.133 0.005,0.045 0.019,0.084 0.041,0.117 0.012,0.045 0.028,0.089 0.05,0.133 0.022,0.045 0.051,0.09 0.084,0.134 0.145,0.2 0.313,0.342 0.508,0.425 0.195,0.084 0.397,0.125 0.609,0.125 0.021,0 0.041,0 0.058,0 0.017,0 0.03,0 0.042,0 0.256,-0.011 0.497,-0.069 0.726,-0.175 0.228,-0.105 0.413,-0.23 0.558,-0.375 v -2.502 z"
     id="path49"
     style="stroke:none" /><path
     d="m 171.29787,52.74 h -0.917 l 2.217,-2.367 v 1.451 h 2.501 l -0.399,0.916 h -2.102 v 4.201 c 0,0.022 0,0.042 0,0.059 0,0.017 0,0.031 0,0.041 0,0.012 0,0.025 0,0.043 0,0.016 0,0.029 0,0.041 0,0.422 0.111,0.73 0.334,0.926 0.223,0.193 0.483,0.291 0.783,0.291 0.022,0 0.047,0 0.075,0 0.027,0 0.053,0 0.075,0 0.178,-0.021 0.35,-0.072 0.517,-0.15 0.167,-0.077 0.317,-0.184 0.45,-0.316 0.056,-0.055 0.111,-0.1 0.167,-0.133 0.056,-0.033 0.105,-0.051 0.149,-0.051 0.033,0 0.062,0.009 0.084,0.025 0.021,0.017 0.033,0.053 0.033,0.108 0,0.022 0,0.05 0,0.083 0,0.033 -0.012,0.066 -0.033,0.1 -0.145,0.29 -0.397,0.537 -0.759,0.742 -0.361,0.206 -0.742,0.331 -1.142,0.375 -0.045,0.012 -0.087,0.018 -0.125,0.018 -0.039,0 -0.081,0 -0.125,0 -0.445,0 -0.845,-0.134 -1.201,-0.4 -0.355,-0.268 -0.55,-0.729 -0.583,-1.384 V 52.74 z"
     id="path51"
     style="stroke:none" /><path
     d="m 177.19987,55.491 v -1.968 c 0,-0.244 -0.069,-0.455 -0.208,-0.633 -0.14,-0.178 -0.376,-0.268 -0.709,-0.268 v -0.283 c 0.2,-0.021 0.392,-0.063 0.575,-0.125 0.184,-0.061 0.364,-0.136 0.542,-0.225 0.178,-0.078 0.358,-0.164 0.542,-0.258 0.183,-0.095 0.375,-0.191 0.575,-0.292 v 6.019 c 0,0.344 0.038,0.607 0.116,0.791 0.078,0.184 0.345,0.275 0.8,0.275 v 0.383 h -3.283 v -0.399 c 0.521,0.011 0.827,-0.048 0.916,-0.175 0.089,-0.129 0.134,-0.326 0.134,-0.592 v -2.25 l 0,0 z m 0.533,-8.401 c 0.289,0.01 0.509,0.11 0.659,0.299 0.149,0.189 0.225,0.4 0.225,0.634 0.011,0.233 -0.059,0.448 -0.208,0.642 -0.15,0.195 -0.376,0.293 -0.676,0.293 -0.289,0 -0.508,-0.096 -0.658,-0.284 -0.15,-0.188 -0.225,-0.399 -0.225,-0.634 -0.012,-0.232 0.058,-0.447 0.208,-0.642 0.149,-0.194 0.375,-0.292 0.675,-0.292 V 47.09 z"
     id="path53"
     style="stroke:none" /><path
     d="m 180.61687,55.241 c 0,-1.289 0.378,-2.22 1.134,-2.792 0.756,-0.572 1.59,-0.865 2.501,-0.875 0.011,0 0.02,0 0.024,0 0.006,0 0.015,0 0.025,0 0.134,0 0.272,0.008 0.417,0.024 0.145,0.016 0.283,0.042 0.417,0.075 0.678,0.155 1.3,0.512 1.867,1.066 0.566,0.557 0.85,1.352 0.85,2.385 0,0.033 0,0.066 0,0.1 0,0.034 0,0.066 0,0.1 0.012,1.057 -0.258,1.876 -0.809,2.459 -0.55,0.584 -1.152,0.959 -1.809,1.125 -0.155,0.045 -0.311,0.078 -0.467,0.101 -0.155,0.022 -0.312,0.033 -0.467,0.033 -0.022,0 -0.044,0 -0.066,0 -0.022,0 -0.045,0.006 -0.066,0.017 -0.022,0 -0.045,0 -0.067,0 -0.022,0 -0.044,0 -0.066,0 -0.911,0 -1.692,-0.322 -2.343,-0.967 -0.649,-0.645 -1.008,-1.589 -1.075,-2.834 v -0.017 l 0,0 z m 5.785,0 c 0,-0.911 -0.169,-1.706 -0.509,-2.384 -0.339,-0.678 -0.869,-1.018 -1.592,-1.018 -0.655,0 -1.175,0.278 -1.559,0.834 -0.384,0.556 -0.608,1.456 -0.675,2.701 0,0.166 0.011,0.338 0.033,0.516 0.022,0.179 0.05,0.361 0.083,0.551 0.134,0.556 0.361,1.064 0.684,1.525 0.323,0.461 0.756,0.691 1.301,0.691 0.722,0 1.275,-0.289 1.658,-0.866 0.384,-0.578 0.575,-1.423 0.575,-2.534 v -0.016 z"
     id="path55"
     style="stroke:none" /><path
     d="m 189.93587,55.241 v -1.983 c 0,-0.312 -0.08,-0.495 -0.242,-0.551 -0.16,-0.056 -0.341,-0.084 -0.541,-0.084 v -0.416 c 0.155,0.012 0.342,-0.02 0.559,-0.092 0.217,-0.072 0.441,-0.152 0.675,-0.242 0.044,-0.021 0.089,-0.041 0.134,-0.058 0.044,-0.017 0.089,-0.036 0.133,-0.059 0.134,-0.056 0.261,-0.11 0.384,-0.167 0.122,-0.055 0.239,-0.105 0.35,-0.149 v 1.3 c 0.322,-0.443 0.661,-0.771 1.018,-0.983 0.355,-0.211 0.761,-0.316 1.217,-0.316 0.8,0 1.417,0.25 1.85,0.75 0.435,0.5 0.656,1.089 0.667,1.767 0,0.023 0,0.045 0,0.066 0,0.023 0,0.04 0,0.051 -0.011,0.021 -0.017,0.045 -0.017,0.066 0,0.022 0,0.045 0,0.066 v 3.252 c 0,0.477 0.075,0.774 0.226,0.891 0.149,0.117 0.425,0.176 0.825,0.176 v 0.383 h -3.418 V 58.51 c 0.322,0.011 0.578,-0.028 0.768,-0.116 0.188,-0.09 0.283,-0.395 0.283,-0.918 v -3.417 c -0.033,-0.655 -0.209,-1.126 -0.525,-1.409 -0.316,-0.283 -0.675,-0.425 -1.075,-0.425 -0.022,0 -0.045,0 -0.066,0 -0.022,0 -0.045,0 -0.066,0 -0.456,0.022 -0.873,0.194 -1.251,0.517 -0.378,0.323 -0.566,0.723 -0.566,1.201 v 3.783 c 0,0.334 0.105,0.551 0.316,0.65 0.211,0.099 0.438,0.15 0.684,0.15 0.011,0 0.02,0 0.025,0 0.005,0 0.014,0 0.024,0 v 0.383 h -3.284 V 58.51 c 0.4,0.011 0.653,-0.036 0.759,-0.142 0.106,-0.106 0.158,-0.359 0.158,-0.759 v -2.368 z"
     id="path57"
     style="stroke:none" /><path
     d="m 201.88887,54.708 v -1.834 c 0,-0.278 -0.083,-0.476 -0.25,-0.592 -0.167,-0.116 -0.367,-0.175 -0.601,-0.175 -0.056,0 -0.108,0.002 -0.158,0.008 -0.05,0.006 -0.103,0.014 -0.158,0.025 -0.188,0.021 -0.372,0.069 -0.55,0.142 -0.178,0.071 -0.328,0.147 -0.45,0.226 -0.056,0.044 -0.103,0.088 -0.142,0.133 -0.039,0.045 -0.059,0.083 -0.059,0.117 0.011,0.066 0.017,0.13 0.017,0.191 0,0.061 0,0.119 0,0.175 0,0.411 -0.063,0.697 -0.191,0.858 -0.128,0.161 -0.27,0.264 -0.426,0.309 -0.056,0.012 -0.111,0.02 -0.166,0.025 -0.056,0.005 -0.105,0.008 -0.15,0.008 -0.155,0 -0.272,-0.047 -0.351,-0.142 -0.077,-0.095 -0.133,-0.197 -0.166,-0.309 0,-0.033 -0.003,-0.066 -0.009,-0.101 -0.005,-0.033 -0.008,-0.066 -0.008,-0.1 0.044,-0.4 0.28,-0.764 0.708,-1.092 0.428,-0.328 0.893,-0.58 1.393,-0.758 0.233,-0.078 0.464,-0.14 0.691,-0.184 0.228,-0.045 0.437,-0.066 0.625,-0.066 0.589,0 1.022,0.119 1.301,0.357 0.277,0.24 0.417,0.688 0.417,1.342 v 4.318 c 0,0.289 0.035,0.488 0.108,0.6 0.072,0.111 0.152,0.173 0.241,0.184 0.011,0 0.022,0 0.033,0 0.012,0 0.028,-0.006 0.05,-0.017 0.09,-0.022 0.17,-0.091 0.242,-0.208 0.072,-0.117 0.108,-0.253 0.108,-0.408 l 0.384,-0.018 c 0,0.39 -0.095,0.703 -0.284,0.942 -0.188,0.239 -0.395,0.392 -0.616,0.458 -0.045,0.023 -0.089,0.037 -0.134,0.043 -0.044,0.005 -0.089,0.008 -0.133,0.008 -0.334,0 -0.604,-0.098 -0.809,-0.292 -0.206,-0.194 -0.376,-0.486 -0.509,-0.876 -0.011,0.012 -0.02,0.02 -0.025,0.025 -0.005,0.006 -0.014,0.014 -0.024,0.025 -0.155,0.145 -0.334,0.283 -0.534,0.416 -0.199,0.134 -0.411,0.25 -0.633,0.352 -0.155,0.055 -0.309,0.104 -0.459,0.148 -0.149,0.045 -0.291,0.067 -0.425,0.067 -0.011,0 -0.027,0 -0.05,0 -0.023,0 -0.045,0 -0.066,0 -0.078,0 -0.178,-0.009 -0.301,-0.024 -0.122,-0.018 -0.244,-0.053 -0.366,-0.109 -0.189,-0.066 -0.361,-0.199 -0.518,-0.399 -0.155,-0.2 -0.25,-0.501 -0.283,-0.9 0,-0.011 0,-0.022 0,-0.033 0,-0.011 0,-0.022 0,-0.034 0,0 0,-0.005 0,-0.016 0,-0.012 0,-0.022 0,-0.033 0,-0.512 0.233,-0.953 0.7,-1.326 0.467,-0.372 0.979,-0.68 1.534,-0.925 0.267,-0.11 0.525,-0.211 0.775,-0.3 0.25,-0.09 0.475,-0.162 0.675,-0.217 v -0.014 l 0.002,0 z m 0,0.399 c -0.8,0.278 -1.447,0.586 -1.942,0.926 -0.494,0.339 -0.742,0.691 -0.742,1.059 0,0.044 0.003,0.089 0.009,0.133 0.006,0.045 0.02,0.084 0.042,0.117 0.011,0.045 0.027,0.089 0.05,0.133 0.022,0.045 0.05,0.09 0.083,0.134 0.145,0.2 0.314,0.342 0.509,0.425 0.194,0.084 0.397,0.125 0.608,0.125 0.022,0 0.042,0 0.059,0 0.017,0 0.03,0 0.041,0 0.256,-0.011 0.498,-0.069 0.726,-0.175 0.228,-0.106 0.414,-0.23 0.559,-0.375 v -2.502 z"
     id="path59"
     style="stroke:none" /><path
     d="m 206.60687,52.607 v -3.018 c 0,-0.512 -0.044,-0.84 -0.133,-0.983 -0.089,-0.146 -0.396,-0.25 -0.917,-0.317 v -0.283 l 2.367,-0.65 V 57.46 c 0,0.355 0.042,0.625 0.125,0.809 0.083,0.184 0.28,0.28 0.592,0.291 0.056,0 0.111,-0.003 0.167,-0.008 0.055,-0.006 0.11,-0.014 0.166,-0.025 v 0.383 h -3.417 v -0.399 c 0.455,0.011 0.744,-0.042 0.866,-0.159 0.123,-0.116 0.184,-0.408 0.184,-0.875 v -4.87 z"
     id="path61"
     style="stroke:none" /><path
     d="m 218.29387,48.807 -0.384,-0.4 c 0.012,0 0.025,-0.006 0.042,-0.017 0.017,-0.011 0.03,-0.022 0.042,-0.033 0.244,-0.2 0.48,-0.417 0.708,-0.65 0.228,-0.233 0.403,-0.478 0.525,-0.733 l 4.201,10.369 c 0.011,0.045 0.025,0.084 0.041,0.117 0.018,0.033 0.037,0.066 0.059,0.1 0.101,0.211 0.226,0.396 0.375,0.559 0.15,0.16 0.426,0.297 0.825,0.408 v 0.383 h -4.451 v -0.399 c 0.522,0.011 0.897,-0.014 1.126,-0.075 0.228,-0.061 0.342,-0.214 0.342,-0.459 0,-0.088 -0.015,-0.197 -0.042,-0.324 -0.028,-0.128 -0.069,-0.27 -0.125,-0.426 l -1.051,-2.783 h -3.934 l -1.051,2.9 c -0.011,0.089 -0.022,0.166 -0.033,0.233 -0.011,0.066 -0.017,0.128 -0.017,0.183 -0.011,0.212 0.075,0.381 0.259,0.51 0.183,0.127 0.553,0.213 1.108,0.258 v 0.383 h -3.151 v -0.399 c 0.39,-0.078 0.659,-0.2 0.809,-0.366 0.15,-0.168 0.275,-0.373 0.375,-0.617 0.034,-0.078 0.07,-0.167 0.108,-0.268 0.039,-0.1 0.087,-0.199 0.142,-0.299 l 3.152,-8.155 0,0 z m 0.132,0.65 -1.566,4.467 h 3.417 l -1.851,-4.467 z"
     id="path63"
     style="stroke:none" /><path
     d="m 231.29587,56.541 0.25,0.134 c -0.2,0.601 -0.431,1.067 -0.691,1.4 -0.262,0.333 -0.531,0.583 -0.809,0.751 -0.289,0.154 -0.564,0.252 -0.825,0.291 -0.261,0.039 -0.492,0.059 -0.692,0.059 -0.011,0 -0.024,0 -0.041,0 -0.017,0 -0.036,0 -0.059,0 -1.078,0 -1.903,-0.402 -2.476,-1.209 -0.572,-0.806 -0.864,-1.697 -0.875,-2.676 0,-0.011 0,-0.02 0,-0.025 0,-0.005 0,-0.014 0,-0.024 0,-0.956 0.28,-1.834 0.842,-2.634 0.561,-0.801 1.431,-1.234 2.608,-1.301 0.045,0 0.239,0.018 0.584,0.051 0.345,0.033 0.717,0.149 1.117,0.35 0.211,0.111 0.422,0.25 0.633,0.416 0.212,0.168 0.396,0.379 0.551,0.635 0.044,0.055 0.074,0.121 0.092,0.199 0.017,0.078 0.03,0.162 0.041,0.25 0,0.012 0,0.025 0,0.042 0,0.017 0,0.03 0,0.042 -0.021,0.166 -0.08,0.316 -0.175,0.449 -0.095,0.134 -0.247,0.206 -0.458,0.217 -0.022,0 -0.048,0 -0.075,0 -0.028,0 -0.053,-0.005 -0.075,-0.016 -0.2,-0.033 -0.351,-0.15 -0.45,-0.351 -0.099,-0.201 -0.188,-0.417 -0.267,-0.649 0,0 -0.003,-0.004 -0.009,-0.01 -0.005,-0.005 -0.008,-0.014 -0.008,-0.024 -0.066,-0.2 -0.142,-0.392 -0.226,-0.575 -0.083,-0.184 -0.202,-0.303 -0.358,-0.358 -0.077,-0.033 -0.183,-0.063 -0.316,-0.092 -0.133,-0.029 -0.278,-0.042 -0.434,-0.042 -0.1,0 -0.2,0.006 -0.3,0.018 -0.101,0.011 -0.2,0.033 -0.3,0.066 -0.39,0.122 -0.742,0.416 -1.059,0.883 -0.317,0.467 -0.476,1.24 -0.476,2.318 0,1.044 0.25,1.816 0.75,2.316 0.501,0.5 1.056,0.75 1.667,0.75 0.034,0 0.064,0 0.092,0 0.028,0 0.053,0 0.075,0 0.434,-0.033 0.848,-0.186 1.242,-0.458 0.394,-0.272 0.697,-0.664 0.908,-1.175 v -0.018 z"
     id="path65"
     style="stroke:none" /><path
     d="m 236.28187,54.708 v -1.834 c 0,-0.278 -0.084,-0.476 -0.25,-0.592 -0.167,-0.116 -0.367,-0.175 -0.601,-0.175 -0.056,0 -0.108,0.002 -0.158,0.008 -0.05,0.006 -0.103,0.014 -0.158,0.025 -0.189,0.021 -0.373,0.069 -0.551,0.142 -0.178,0.071 -0.327,0.147 -0.45,0.226 -0.056,0.044 -0.103,0.088 -0.142,0.133 -0.039,0.045 -0.058,0.083 -0.058,0.117 0.011,0.066 0.017,0.13 0.017,0.191 0,0.061 0,0.119 0,0.175 0,0.411 -0.064,0.697 -0.192,0.858 -0.128,0.161 -0.27,0.264 -0.425,0.309 -0.056,0.012 -0.111,0.02 -0.167,0.025 -0.056,0.005 -0.105,0.008 -0.149,0.008 -0.156,0 -0.272,-0.047 -0.351,-0.142 -0.077,-0.095 -0.133,-0.197 -0.167,-0.309 0,-0.033 -0.003,-0.066 -0.008,-0.101 -0.006,-0.033 -0.009,-0.066 -0.009,-0.1 0.045,-0.4 0.281,-0.764 0.709,-1.092 0.428,-0.328 0.892,-0.58 1.392,-0.758 0.233,-0.078 0.464,-0.14 0.692,-0.184 0.228,-0.045 0.436,-0.066 0.625,-0.066 0.589,0 1.022,0.119 1.301,0.357 0.277,0.24 0.416,0.688 0.416,1.342 v 4.318 c 0,0.289 0.036,0.488 0.108,0.6 0.072,0.112 0.153,0.173 0.242,0.184 0.011,0 0.021,0 0.033,0 0.011,0 0.027,-0.006 0.05,-0.017 0.089,-0.022 0.17,-0.091 0.242,-0.208 0.072,-0.117 0.108,-0.253 0.108,-0.408 l 0.383,-0.018 c 0,0.39 -0.095,0.703 -0.283,0.942 -0.189,0.239 -0.395,0.392 -0.617,0.458 -0.044,0.023 -0.089,0.037 -0.133,0.043 -0.045,0.005 -0.089,0.008 -0.134,0.008 -0.333,0 -0.603,-0.098 -0.809,-0.292 -0.205,-0.194 -0.375,-0.486 -0.508,-0.876 -0.012,0.012 -0.02,0.02 -0.025,0.025 -0.005,0.005 -0.014,0.014 -0.025,0.025 -0.155,0.145 -0.333,0.283 -0.533,0.416 -0.2,0.134 -0.411,0.25 -0.633,0.352 -0.156,0.055 -0.309,0.104 -0.459,0.148 -0.15,0.045 -0.292,0.067 -0.425,0.067 -0.012,0 -0.028,0 -0.051,0 -0.021,0 -0.044,0 -0.066,0 -0.077,0 -0.178,-0.009 -0.3,-0.024 -0.122,-0.018 -0.244,-0.053 -0.367,-0.109 -0.188,-0.066 -0.361,-0.199 -0.517,-0.399 -0.156,-0.2 -0.25,-0.501 -0.283,-0.9 0,-0.011 0,-0.022 0,-0.033 0,-0.011 0,-0.022 0,-0.034 0,0 0,-0.005 0,-0.016 0,-0.012 0,-0.022 0,-0.033 0,-0.512 0.233,-0.953 0.7,-1.326 0.467,-0.372 0.978,-0.68 1.533,-0.925 0.268,-0.11 0.525,-0.211 0.775,-0.3 0.25,-0.09 0.476,-0.162 0.676,-0.217 v -0.014 l 0.002,0 z m 0,0.399 c -0.801,0.278 -1.448,0.586 -1.942,0.926 -0.494,0.339 -0.742,0.691 -0.742,1.059 0,0.044 0.003,0.089 0.009,0.133 0.005,0.045 0.02,0.084 0.041,0.117 0.012,0.045 0.028,0.089 0.051,0.133 0.021,0.045 0.05,0.09 0.083,0.134 0.145,0.2 0.314,0.342 0.509,0.425 0.194,0.084 0.397,0.125 0.608,0.125 0.021,0 0.042,0 0.058,0 0.018,0 0.031,0 0.042,0 0.256,-0.011 0.497,-0.069 0.726,-0.175 0.228,-0.105 0.414,-0.23 0.559,-0.375 v -2.502 z"
     id="path67"
     style="stroke:none" /><path
     d="m 245.73387,49.59 c 0,-0.033 0,-0.069 0,-0.108 0,-0.039 0,-0.075 0,-0.108 0.011,-0.367 -0.028,-0.617 -0.117,-0.75 -0.089,-0.134 -0.399,-0.2 -0.934,-0.2 V 48.14 l 2.367,-0.916 v 10.902 l 0.917,0.133 v 0.251 l -2.233,0.667 v -1.184 c -0.011,0.021 -0.02,0.039 -0.025,0.05 -0.005,0.011 -0.014,0.022 -0.024,0.033 -0.256,0.3 -0.533,0.542 -0.834,0.726 -0.3,0.184 -0.706,0.309 -1.217,0.375 -0.045,0.011 -0.086,0.017 -0.125,0.017 -0.039,0 -0.08,0 -0.125,0 -0.178,0 -0.378,-0.022 -0.601,-0.067 -0.222,-0.044 -0.444,-0.116 -0.666,-0.217 -0.468,-0.199 -0.9,-0.547 -1.301,-1.041 -0.401,-0.494 -0.645,-1.192 -0.733,-2.092 0,-0.034 -0.003,-0.07 -0.009,-0.109 -0.005,-0.039 -0.008,-0.074 -0.008,-0.107 0,-0.034 0,-0.07 0,-0.109 0,-0.039 0,-0.074 0,-0.107 0,-0.99 0.264,-1.801 0.792,-2.435 0.527,-0.634 1.103,-1.062 1.726,-1.284 0.166,-0.066 0.333,-0.113 0.5,-0.141 0.166,-0.028 0.327,-0.042 0.483,-0.042 0.033,0 0.066,0 0.1,0 0.034,0 0.066,0 0.1,0 0.111,0 0.229,0.009 0.351,0.024 0.122,0.018 0.244,0.037 0.367,0.059 0.222,0.056 0.441,0.133 0.658,0.233 0.217,0.1 0.414,0.217 0.592,0.351 v -2.52 l -0.001,0 z m 0,8.002 v -3.668 c 0,-0.1 -0.014,-0.217 -0.042,-0.35 -0.027,-0.133 -0.069,-0.267 -0.125,-0.4 -0.134,-0.333 -0.35,-0.639 -0.65,-0.917 -0.3,-0.278 -0.684,-0.417 -1.15,-0.417 -0.767,0.033 -1.342,0.381 -1.725,1.043 -0.384,0.66 -0.575,1.392 -0.575,2.191 0,0.012 0,0.02 0,0.025 0,0.005 0,0.014 0,0.025 0.011,0.833 0.22,1.6 0.625,2.301 0.405,0.699 1.009,1.066 1.809,1.1 0.256,0 0.542,-0.07 0.858,-0.209 0.317,-0.139 0.643,-0.375 0.976,-0.708 v -0.016 z"
     id="path69"
     style="stroke:none" /><path
     d="m 255.96887,56.408 0.384,0.133 c -0.322,0.734 -0.717,1.34 -1.184,1.817 -0.467,0.477 -1.161,0.751 -2.084,0.817 -0.033,0 -0.063,0 -0.092,0 -0.027,0 -0.053,0.006 -0.074,0.017 -0.022,0 -0.048,0 -0.075,0 -0.028,0 -0.059,0 -0.092,0 -0.867,0 -1.647,-0.275 -2.343,-0.825 -0.694,-0.551 -1.075,-1.504 -1.142,-2.859 0,-1.122 0.348,-2.059 1.042,-2.809 0.694,-0.75 1.531,-1.125 2.509,-1.125 0.855,0 1.605,0.225 2.251,0.674 0.645,0.451 1.033,1.104 1.167,1.959 l -5.652,-0.016 c -0.011,0.077 -0.021,0.146 -0.032,0.208 -0.012,0.062 -0.022,0.125 -0.034,0.192 0,0.066 -0.003,0.13 -0.008,0.191 -0.006,0.061 -0.009,0.125 -0.009,0.191 0,0.844 0.245,1.584 0.733,2.217 0.489,0.634 1.106,0.951 1.851,0.951 0.056,0.01 0.105,0.016 0.15,0.016 0.044,0 0.089,0 0.134,0 0.021,0 0.044,0 0.066,0 0.021,0 0.044,0 0.066,0 0.533,-0.033 1.033,-0.199 1.5,-0.5 0.467,-0.3 0.789,-0.711 0.967,-1.233 v -0.016 l 0.001,0 z m -1.716,-2.617 c -0.022,-0.611 -0.186,-1.064 -0.491,-1.359 -0.307,-0.294 -0.653,-0.447 -1.042,-0.458 -0.045,0 -0.089,0.003 -0.134,0.009 -0.044,0.006 -0.089,0.008 -0.134,0.008 -0.355,0.066 -0.697,0.253 -1.024,0.559 -0.328,0.306 -0.564,0.725 -0.709,1.259 l 3.534,-0.018 z"
     id="path71"
     style="stroke:none" /><path
     d="M 258.45387,55.241 V 53.39 c 0,-0.033 -0.003,-0.072 -0.009,-0.117 -0.005,-0.044 -0.014,-0.088 -0.024,-0.133 -0.045,-0.167 -0.139,-0.316 -0.283,-0.45 -0.144,-0.134 -0.345,-0.2 -0.601,-0.2 v -0.283 c 0.145,-0.021 0.278,-0.05 0.4,-0.084 0.122,-0.033 0.239,-0.066 0.35,-0.1 0.111,-0.033 0.22,-0.066 0.325,-0.1 0.105,-0.034 0.209,-0.072 0.309,-0.117 0.134,-0.044 0.27,-0.098 0.408,-0.158 0.138,-0.06 0.286,-0.131 0.442,-0.208 v 1.3 c 0.277,-0.344 0.592,-0.622 0.941,-0.834 0.351,-0.211 0.709,-0.35 1.075,-0.416 0.066,-0.012 0.137,-0.02 0.209,-0.025 0.072,-0.005 0.142,-0.008 0.208,-0.008 0.444,0 0.853,0.127 1.226,0.383 0.372,0.256 0.642,0.65 0.809,1.184 0.044,-0.055 0.086,-0.107 0.125,-0.158 0.038,-0.049 0.08,-0.097 0.125,-0.142 0.277,-0.333 0.577,-0.608 0.899,-0.825 0.323,-0.217 0.768,-0.324 1.334,-0.324 0.656,0 1.199,0.241 1.626,0.725 0.427,0.484 0.674,1.119 0.74,1.908 v 3.135 c 0,0.533 0.045,0.863 0.135,0.992 0.088,0.127 0.395,0.191 0.916,0.191 v 0.383 h -3.284 V 58.51 c 0.467,0.011 0.739,-0.048 0.817,-0.175 0.078,-0.129 0.111,-0.364 0.1,-0.709 0,-0.045 0,-0.089 0,-0.133 0,-0.045 0,-0.09 0,-0.134 v -3.301 c 0,-0.578 -0.164,-1.009 -0.492,-1.292 -0.328,-0.283 -0.692,-0.426 -1.091,-0.426 -0.011,0 -0.02,0 -0.025,0 -0.005,0 -0.014,0 -0.024,0 -0.39,0 -0.751,0.14 -1.084,0.418 -0.333,0.277 -0.517,0.672 -0.55,1.184 v 3.518 c 0,0.311 0.027,0.568 0.083,0.774 0.056,0.206 0.245,0.309 0.567,0.309 0.044,0 0.088,0 0.133,0 0.045,0 0.089,-0.005 0.134,-0.017 v 0.383 h -3.151 V 58.51 c 0.322,0.011 0.548,-0.078 0.676,-0.267 0.127,-0.189 0.202,-0.395 0.225,-0.617 0.011,-0.045 0.017,-0.089 0.017,-0.133 0,-0.045 0,-0.09 0,-0.134 v -3.051 c 0.011,-0.044 0.017,-0.095 0.017,-0.149 0,-0.057 0,-0.106 0,-0.15 0,-0.557 -0.161,-0.989 -0.483,-1.301 -0.322,-0.311 -0.694,-0.467 -1.117,-0.467 -0.055,0 -0.116,0.003 -0.183,0.008 -0.067,0.006 -0.128,0.015 -0.184,0.025 -0.267,0.056 -0.528,0.178 -0.784,0.367 -0.255,0.189 -0.482,0.444 -0.683,0.767 v 3.802 c 0,0.611 0.05,0.982 0.149,1.117 0.101,0.133 0.262,0.199 0.483,0.199 0.045,0 0.092,0 0.143,0 0.05,0 0.097,0 0.141,0 v 0.383 h -3.15 V 58.51 c 0.423,0.011 0.681,-0.039 0.775,-0.15 0.095,-0.11 0.142,-0.255 0.142,-0.433 0,-0.057 0,-0.109 0,-0.159 0,-0.05 0,-0.103 0,-0.158 v -2.369 z"
     id="path73"
     style="stroke:none" /><path
     d="m 274.87387,58.908 -3.15,-5.768 c -0.021,-0.045 -0.059,-0.108 -0.107,-0.191 -0.051,-0.084 -0.109,-0.176 -0.176,-0.275 -0.09,-0.145 -0.199,-0.275 -0.334,-0.392 -0.133,-0.116 -0.277,-0.175 -0.434,-0.175 V 51.69 h 3.668 v 0.399 c -0.479,0.012 -0.822,0.064 -1.033,0.158 -0.211,0.096 -0.316,0.236 -0.316,0.426 0,0.066 0.016,0.143 0.049,0.225 0.033,0.084 0.072,0.17 0.117,0.259 l 2.234,4.185 1.584,-4.201 c 0.021,-0.045 0.035,-0.089 0.041,-0.133 0.006,-0.045 0.008,-0.09 0.008,-0.134 0,-0.255 -0.105,-0.438 -0.316,-0.55 -0.211,-0.112 -0.439,-0.178 -0.684,-0.201 -0.045,-0.01 -0.086,-0.016 -0.125,-0.016 -0.039,0 -0.074,0 -0.107,0 V 51.69 h 2.883 v 0.399 c -0.244,0.012 -0.453,0.078 -0.625,0.201 -0.172,0.121 -0.309,0.256 -0.408,0.399 -0.1,0.134 -0.172,0.259 -0.217,0.376 -0.045,0.115 -0.066,0.186 -0.066,0.207 l -2.75,7.869 c -0.023,0.078 -0.053,0.164 -0.092,0.258 -0.039,0.096 -0.082,0.192 -0.125,0.293 -0.135,0.222 -0.303,0.424 -0.51,0.607 -0.205,0.184 -0.447,0.275 -0.725,0.275 -0.244,0 -0.428,-0.061 -0.551,-0.184 -0.121,-0.122 -0.182,-0.261 -0.182,-0.416 -0.012,-0.178 0.047,-0.34 0.174,-0.484 0.129,-0.145 0.314,-0.217 0.559,-0.217 0.111,0.023 0.209,0.039 0.293,0.051 0.082,0.012 0.152,0.017 0.207,0.017 0.1,0.011 0.184,-0.003 0.25,-0.042 0.066,-0.039 0.129,-0.103 0.184,-0.191 0.021,-0.033 0.041,-0.069 0.059,-0.108 0.016,-0.038 0.035,-0.081 0.059,-0.125 l 0.664,-1.967 z"
     id="path75"
     style="stroke:none" /><rect
     width="4.5539999"
     height="6.9829998"
     x="59.531868"
     y="32.002014"
     id="rect77"
     style="fill-rule:evenodd;stroke:none" /><rect
     width="4.8569999"
     height="4.1739998"
     x="59.379868"
     y="44.442993"
     id="rect79"
     style="fill-rule:evenodd;stroke:none" /><rect
     width="9.1239996"
     height="15.475"
     x="57.332867"
     y="52.485992"
     id="rect81"
     style="fill-rule:evenodd;stroke:none" /><rect
     width="4.5539999"
     height="6.9829998"
     x="36.554867"
     y="32.002014"
     id="rect83"
     style="fill-rule:evenodd;stroke:none" /><rect
     width="4.8579998"
     height="9.8669996"
     x="36.402866"
     y="43.981995"
     id="rect85"
     style="fill-rule:evenodd;stroke:none" /><rect
     width="4.8579998"
     height="5.921"
     x="36.402866"
     y="58.707001"
     id="rect87"
     style="fill-rule:evenodd;stroke:none" /><g
     transform="translate(-37.872132,-355.297)"
     id="g91"
     style="stroke:none"><rect
       width="4.5539999"
       height="6.9829998"
       x="62.787998"
       y="387.29901"
       id="rect93"
       style="fill-rule:evenodd;stroke:none" /><rect
       width="4.8579998"
       height="9.8669996"
       x="62.634998"
       y="399.27899"
       id="rect95"
       style="fill-rule:evenodd;stroke:none" /><rect
       width="4.8579998"
       height="5.921"
       x="62.634998"
       y="414.004"
       id="rect97"
       style="fill-rule:evenodd;stroke:none" /></g><rect
     width="4.5539999"
     height="6.9829998"
     x="48.194866"
     y="32.002014"
     id="rect99"
     style="fill-rule:evenodd;stroke:none" /><rect
     width="4.8569999"
     height="9.8669996"
     x="48.043865"
     y="43.981995"
     id="rect101"
     style="fill-rule:evenodd;stroke:none" /><rect
     width="4.8569999"
     height="5.921"
     x="48.043865"
     y="58.707001"
     id="rect103"
     style="fill-rule:evenodd;stroke:none" /><rect
     width="4.5539999"
     height="6.9829998"
     x="82.62587"
     y="32.002014"
     id="rect109"
     style="fill-rule:evenodd;stroke:none" /><rect
     width="4.8579998"
     height="9.8669996"
     x="82.473869"
     y="43.981995"
     id="rect111"
     style="fill-rule:evenodd;stroke:none" /><rect
     width="4.8579998"
     height="5.921"
     x="82.473869"
     y="58.707001"
     id="rect113"
     style="fill-rule:evenodd;stroke:none" /><g
     transform="translate(-37.872132,-355.297)"
     id="g117"
     style="stroke:none"><rect
       width="4.5539999"
       height="6.9829998"
       x="132.138"
       y="387.29901"
       id="rect119"
       style="fill-rule:evenodd;stroke:none" /><rect
       width="4.8579998"
       height="9.8669996"
       x="131.98599"
       y="399.27899"
       id="rect121"
       style="fill-rule:evenodd;stroke:none" /><rect
       width="4.8579998"
       height="5.921"
       x="131.98599"
       y="414.004"
       id="rect123"
       style="fill-rule:evenodd;stroke:none" /></g><rect
     width="4.5539999"
     height="6.9829998"
     x="70.98587"
     y="32.002014"
     id="rect125"
     style="fill-rule:evenodd;stroke:none" /><rect
     width="4.8569999"
     height="9.8669996"
     x="70.834869"
     y="43.981995"
     id="rect127"
     style="fill-rule:evenodd;stroke:none" /><rect
     width="4.8569999"
     height="5.921"
     x="70.834869"
     y="58.707001"
     id="rect129"
     style="fill-rule:evenodd;stroke:none" /><rect
     width="10.432"
     height="1.574"
     x="56.677868"
     y="51.214996"
     id="rect133"
     style="fill-rule:evenodd;stroke:none" /></svg>